<?xml version="1.0" encoding="UTF-8"?>
<svg id="Layer_1" xmlns="http://www.w3.org/2000/svg" version="1.1" viewBox="0 0 164.35 200">
  <!-- Generator: Adobe Illustrator 30.0.0, SVG Export Plug-In . SVG Version: 2.1.1 Build 123)  -->
  <path d="M1.65,200c-.46-.13-.69-.87-.75-1.31-.18-1.37-.11-12.68.23-13.4.24-.5.89-.58.97-.86.31-1.15-.21-3.61-.02-4.98.1-.69.53-1.05.62-1.74.34-2.4.32-11.49,0-13.92-.23-1.72-2.77-2.43-2.7-3.52.12-1.82,1.64-.67,2.35-1.09.07-.04.46-1.19.68-1.53.26-.41.89-.83,1-1.09.34-.8-1.23-3.93-1-4.82.14-.54.94-.68,1.26-1.12.59-.79.6-2.6,2.12-1.47.4.3.54,1.07.88,1.48s1.08.51,1.26,1.11c.41,1.31-1.1,4.06-.78,4.75.05.1,1.26,1.18,1.55,1.56.25.32.38,1.03.51,1.11.27.17,1.1,0,1.66.26.5.23.57.89.86.97.49.14,2.86-.11,3.26-.38.28-.19.86-1.64,1.54-2.16.51-.39,1.16-.38,1.2-.43.18-.17-1.41-4.05-1.15-4.82.15-.45,1.06-.65,1.42-1.26.5-.87,0-1.92,1.36-1.92s1.04,1.17,1.61,1.96,1.52.5,1.36,1.92c-.1.92-1.16,3.41-1.08,3.94.03.19,2.51,1.87,2.6,2.86l17.22-.89c-.11-.86-.89-1.15-.55-2.16s2.23-.7,2.32-.79c.23-.22-.32-4.1.13-4.75.41-.58,2.03-.1,2.22-.29.07-.07.13-1.28.38-1.84.28-.61,1.59-1.82,1.66-2.18.06-.33-.51-1.07-.57-1.73-.13-1.59,1.03-3.46,2.68-3.7.08-.41.06-.38-.19-.61-.36-.34-1.87-1.39-2.37-1.7-.78-.49-2.25-.36-2.09-1.62.29-2.32,4.31-.75,4.65-1.08-.02-1.4.04-3.1.43-4.45.33-1.13,1.13-1.75,1.33-2.51.89-3.44-.25-7.47.76-11.06.26-.94,1.83-4.41,2.71-4.68.29-.09,2.28-.37,2.62-.37,1.8,0,1.16,2.49,1.35,3.68.29,1.85,1.32,4.42,1.45,5.98.06.69-.96.24-.44.71,1.93-.3.83-1.59,1.05-3.09.27-1.86,1.35-1.74,2.25-2.63.48-.47.59-1.39,1.35-1.75,1.17-.55,2.45.13,2.56.06.28-.19,1.25-2.66,2.4-2.85-.07-4.9.07-9.82,0-14.72-.02-1.41.18-2.17.2-3.18.03-1.58-.99-3.58-2.29-4.48-.55-.38-1.63-.48-1.91-1.04-.23-.47-.25-3.39-.14-3.99.27-1.46,3.86-1.37,4.12-1.65.08-.08.03-1.07.15-1.47.54-1.86,1.89-1.68,2.99-2.93.96-1.08,2-2.66,2.67-3.84.42-.75,1.5-1,2.32-.9.87.11,1.15.84,1.94.88.1-3.71,0-7.41-.29-11.08-.03-.42.28-.89.23-1.41-.11-1.34-1.41-3.75-1.41-5.33-3.7-1.1-1.32-2.4-1.2-4.21.01-.21-.23-1.82-.3-1.89-.18-.17-2.54.32-3.1-.6-.43-.71,1.58-6.27,2-7.47.27-.78,1.04-1.74,1.11-2.46.12-1.21-.89-1.85-.9-2.92,0-1.01.78-1.91.91-2.95.21-1.79-.37-4.06-.24-5.57.08-.88,1.02-.82,1.41-1.83,1.03-2.65.75-5.67,1.25-8.2.72-3.61,6.68-3.15,7.01-4.24.16-.51-1.83-4.69-1.4-6.69.14-.64.77-1.18.81-1.85.06-1-.66-2.58-.24-3.78.15-.44.74-.46.97-.8.27-.4.13-1.14.57-1.49.51-.41,1.23-.11,1.6-.33.2-.12.19-.76,1.08-1.14,1.62-.69,1.8.35,2.85,1.04.7.46,1.55.24,1.91,1.34s.89,3.92.59,5.05c-.14.53-.94,1.1-.99,1.66-.04.46.69,1.57.8,2.34.24,1.74-.12,3.02-1.19,4.37-.32.4-.85.34-.85.77.95-.02,2.67,1.17,3.4,1.17.58,0,1.07-.7,1.71-.54,1.89.48.72,4.22.85,5.35.28,2.56,3.18,6.71,1.43,8.95-.86,1.1-2.01.55-1.76,2.03.32,1.94,3.88,4.81,4.63,7.2,1.22,3.9-.48,8.31.1,12.01.21,1.36,2.48,3.59,1.7,4.85-.39.64-4.39,1.29-5.26.64-.23,1.23-.89,2.57-1.12,3.76-.55,2.9-1.69,9.6-1.18,12.27.05.24.78,2.15.88,2.23.22.16,4.98.75,5.34.66.27-.07.79-1.48,1.6-1.72,1.3-.39,2.52-.03,3.11,1.2.52,1.06.96,2.19,1.84,3.18.74.84,2.71,1.78,2.96,2.35.3.69,0,1.75.19,2.03s3.71.77,4.13,1.41.41,3.73.06,4.47c-.42.88-1.15.54-1.77.89-1.05.59-2.25,2.29-2.43,3.48-.17,1.1.29,1.94.25,2.66-.03.45-.54.85-.58,1.74-.35,7.55.25,15.42.09,23,.28,1.26,1.28,1.03,2.16,1.69,1.15.86,1.05,2.28,3.1,1.78.19-.85-.65-.54-.97-1.24-.77-1.7.59-8.07,1.73-9.67,1.98-2.8,4.04-1.25,4.2,1.7.06,1.14-.57,2.24-.51,3.15.08,1.11,1.27,1.88,1.2,3.57-.05,1.2-.77,1.47-.92,2.5.12.11,2.84-.26,2.99-.47.97-1.32-1.4-3.89.26-4.7,2.28-1.12,3.63.93,3.84,2.96.3,2.93.15,5.11-2.65,6.5,2.49,1.4,2.08,4.28,1.48,6.65,1.62-1.43,7.6-1.26,6.74,1.57-.32,1.07-2.25,1.05-3.12,1.61-.78.5-.87,1.46-1.85,1.55l3.35,1.22c3.42,3.31-.52,5.42-.7,8.82h4.28c.22,0,.67.72.73,1.04.12.64.07,5.47-.13,5.77-.27.4-1.54.25-1.34,1.17l13.46.61c.59-.42,3.46-.85,3.63-.95.09-.05.56-1.43.93-1.88s1.12-.72,1.16-.78c.23-.39-1.31-3.91-1.17-4.83.12-.77,1.06-.88,1.5-1.47.36-.49.46-1.53.87-1.79,1.41-.87,1.47,1.03,2.07,1.78.39.5,1.32.83,1.45,1.23.3.93-1.28,4.22-1.11,4.94.08.31.92.66,1.27,1.08.43.51.72,1.65.8,1.71.21.17,2.54-.11,2.64.52.24,1.45-2.49,2.53-2.69,4.09-.32,2.42-.34,11.52,0,13.92.1.69.53,1.05.62,1.74.21,1.48-.34,4.01-.03,5.29.11.45,1.32-.19,1.5,2.4s-.16,6.57-.3,9.17c-.04.7.25,3.99-.45,3.99H1.65ZM91.03,1.73c-.77-.71-1.24,1.17-1.36,1.2-.4.11-1.11-.11-1.59-.02l.59,1.77c-2.04-.34-1.31.5-1.77,2.07,1.21-.19,2.43-.47,3.67-.27s1.74,1.17,2.82,1.46c-.24-.52.02-1.87-.07-2.18-.22-.74-1.97-.49-.52-2.39-.32-.57-1.13-.34-1.49-.59-.38-.27-.23-.99-.29-1.04ZM92.52,14.73c3.23-3.31-3.27-10.6-5.77-5.03,2.91-2.56,6.83,1.78,5.77,5.03ZM88,10.65c-1.88.55-.89,4.55.29,4.91,4.13,1.26,3.71-6.08-.29-4.91ZM89.26,18.57c-.82-.39-5.55-.18-5.63.47-.3,2.19,2.98,4.96,4.9,5.15.5.05.74-1.15.74-1.33v-4.28ZM93.7,19.16l-2.07-.88c.12,1.3,1.1,1.28,2.07.88ZM82.47,19.46c-.31-.36-1.85,1.12-1.47,1.77h1.48s0-1.77,0-1.77ZM97.54,19.76c-.91-.16-.83,1.27-1.67,1.43-.4.07-1.04-.58-1.73-.57-.74.01-1.18.77-2.05.64s-.7-1.3-1.63-1.2l.3,2.95,2.78-1.2c.94,2.52,1.13.36,1.55.29.53-.09,1.99.82,2.17.61l.3-2.95ZM81.58,30.69c.18-.13,1.68-3.65,1.71-4.06.07-.76-.36-1.61-.45-2.37-.07-.57.58-1.59-.26-1.82-.32-.09-1.57.29-1.75.56s-1.29,5.66-1.31,6.11c-.04.96,1.94,1.67,2.05,1.59ZM88.34,25.7c-.13-.18-3.51-1.66-4.1-1.81.76.75,1.04,5.27,1.52,5.57.17.11,1.89.1,2,0,.15-.12.7-3.62.59-3.77ZM96.65,31.27c0-1.17.33-2.3.48-3.45.05-.4-.28-.89-.14-1.36.17-.61,1.39-.87.58-1.86-1.01-1.22-2.21-.62-2.57.78-1.21.26-1.51-1.14-2.34-1.21s-2.62.84-1.86,1.74c.12.14,1.07,0,1.39.82.36.94-.79.6-.87,1.43-.02.2.78,3.28.93,3.38.2.14,3.68-.59,4.41-.28ZM89.56,28.32c-.29,1.92-2.7,10.99.74,10.92,1.87-.04,1.1-4.22,1.21-5.41l-1.96-5.51ZM99.01,28.62c-.76-.73-.71,2.41-.88,2.66,1.26.1,1.38-2.17.88-2.66ZM84.24,28.92c-.84-.15-.49.2-.66.65-.28.71-.54,1.55-.67,2.3,1-.7,1.26-1.77,1.33-2.95ZM87.47,31.01c-.12-.13-1.55-.34-1.83-.05l-3.46,4.45,4.87-2.37c.35-.34.65-1.77.42-2.04ZM77.74,39.85c1.99-.72,1.85-3.39,2.51-5.02.27-.66,1.28-1.85,1.3-1.97.17-.96-2.38-1.97-3.23-1.58.68,3.06-.22,5.59-.59,8.57ZM96.92,33.92c.06-.11.02-.27.02-.42-1.25-1.48-3.02-1.17-4.13.29,2.3.5.66,1.59.65,2.07-.01.75,2.16,1.34,2.78.45.28-.4-.22-1.13-.06-1.8s.73-.55.75-.59ZM86.9,34.82c-5.15,1.33-3.23,5.86-3.84,9.75.57-.1.49-.62.6-1.02.39-1.36.46-2.59,1.03-4,.69-1.71,2.19-2.93,2.21-4.73ZM100.49,39.84c.17-.15-1.21-2.05-1.41-2.28-.28-.34-.33-.81-.95-.67.7,1.16.53,3.33,2.36,2.95ZM81.57,39.54c.07-.07.22-1.7.31-2.05l-1.77,1.92c.15.27,1.41.18,1.46.13ZM96.93,38.08c-.13-.09-1.86.38-2.51.31-.77-.08-.94-.59-1.61-.61-.18,3.78-4.11,3.87-5.76.89-.89.87-2.13,4.27-1.56,5.25.17.29,2.76,1.68,3.28,1.89,2.52,1,4.82,1.25,7.36.16.72-.31,2.87-1.59,2.88-2.42,0-.29-1.84-5.29-2.08-5.47ZM78.63,41.77v10.79c.68.14.47-.07.67-.38.58-.93,2.52-8.62,2.52-9.82,0-.28-.17-1.27-.42-1.34-.65-.18-2.56-.01-2.77.76ZM101.67,51.66c.04-2.31-.04-4.64-.01-6.95.01-.93.89-3.9-1.02-3.7-1.38.14.1,2.76.31,3.85.15.79.38,2.06.42,2.82.07,1.4-.22,2.32-.29,3.55-.04.59.07.46.59.44ZM99.61,45.46c-3.63,3.15-7.93,3.6-12.21,1.43-.58-.29-2.13-1.63-2.47-1.68-.19-.03-1.62.99-1.71,1.15-.25.41-.18.87-.16,1.32.1,1.91.67,6.81,1.27,8.5.13.38.28.93.68,1.1.91.37.61-1.24,1.45-.27,1.09,1.27.77,7.51.38,9.23-.37,1.6-1.8,2.52-.78,4.32.29.18,1.11.05,1.44-.11.68-.34.87-4.03.91-5.03.03-.76-.35-1.48-.32-2.06.1-1.98.93-5.11.89-6.81-.04-2.33-1.55-2.06-3.05-2.57-1.04-.35-.62-1.48.81-1.43,2.25.08,3.67,2.39,3.71,4.44.64.59,1.77-2.48,1.77-2.81v-4.73c0-.29.75-.62,1.2-.31,1.22.84-.23,6.43-.61,7.85.23.28,3.37-3.3,2.58-.23-.55,2.12-.14,1.79-.19,3.63-.03,1.23-.62,2.96-.62,4.14s.61,2.69.62,3.84c.01,1.4-.59,3.03-.63,4.42-.05,1.57.89,2.35.31,3.99h1.18c-1.26-3.85-.06-7.6.56-11.4.12-.75-.07-1.55.06-2.3.57-3.15,2.92-8.14,2.92-10.97v-6.65ZM77.15,50.63c.33-1.07-.24-3.61,0-4.88l-1.49,4.58v.74c.47.05,1.34.03,1.49-.44ZM82.47,55.21c-.36-1.21-.19-2.44-.33-3.66-.04-.34-.13-1.62-.55-1.66-.4,1.75-.68,4.07.88,5.32ZM103.45,56.98c.13-.11-1.44-2.69-1.64-2.93-.28-.35-.48-.71-1.01-.61l-.59,3.54c1.14.55,2.08-.04,3.25,0ZM80.1,53.74c-.56-.51-2.44,2.89-2.07,3.25.95.02,1.77.54,2.53-.29l-.47-2.95ZM82.77,77.37c-.17-2.5-.45-5.01-.29-7.53.14-2.21.37-5.18.62-7.36.27-2.38,2.21-4.51-1.21-5.79.36,1.83-1.52,1.54-1.75,1.8-.5.58,1.04,4.39,1.15,5.44.25,2.32.34,5.92.31,8.29-.03,1.64-.58,3.43-.31,5.16h1.48ZM93.4,58.17c-.59.42-3.12.2-3.23.31-.43.42-.36,6.69-.23,7.73.24,1.9,1.29,3.81,1.61,5.77.22,1.32-.33,4.78,1.4,4.8.34,0-.08-4.38-.17-4.85-.31-1.74-1.54-3.86-1.48-5.64.07-2.02,2.06-3.5,2.33-5.39.15-1.03-.2-1.75-.24-2.73ZM84.54,67.03c1.42-.96.73-3.33,1.2-4.86l-.31-2.52c0,.73-.89,2.27-.89,2.8v4.58ZM93.4,65.26c-1.23-.17-.42,2.3-.29,2.95l.29-2.95ZM83.95,69.69v5.17c0,.4.76,1.56.59,2.22.4.17.88-.3,1.03-.3h4.88c-.85-2.19.01-4.53-.89-6.79-.5-.04-.26.66-.57,1.05-.97,1.21-2.92,1.48-4.05.32-.54-.55-.44-1.39-.99-1.67ZM108.1,79.81c-2.16-1.76-21.55-1.57-25.19-1.25-1.06.09-7.17.86-7.64,1.15-.19.12-.95,1.65-1.67,2.25-.46.39-2.99,1.57-2.07,2.5.26.26,6.19-.8,7.24-.88,9.27-.69,19.97-.56,29.25.29.63.06,3.57.73,3.69.59.87-1.03-2.09-2.46-2.67-3.09-.46-.49-.79-1.43-.95-1.57ZM89.86,84.76l-18.32,1.18v2.66s14.26-1.25,14.26-1.25c.67-.23,1.07-1.19,1.77-1.48,1.08-.45,2.01.28,2.29-1.11ZM111.71,85.96c-.64-.66-16.21-1.3-18.31-1.19.28,1.38,1.21.66,2.29,1.11.74.31,1.3,1.44,1.85,1.69.99.45,3.85.05,5.18.14,2.08.14,6.76,1.02,8.51.62.46-.11.65-2.19.48-2.36ZM115.82,86.87c-.07-.11-2.52-.74-2.62-.63.29.55-.39,2.56-.3,2.66.1.11,2.49.38,2.95.59-.12-.6.2-2.25-.04-2.62ZM70.06,86.53c-2.48-.1-3.35.32-2.95,2.96,2.45-.25,3.4-.17,2.95-2.96ZM89.56,87.13c-1.25-.6-3.25,1.44-2.07,2.23.18.12,1.43-.11,1.48-.16.16-.17-.26-.83-.23-1.05.06-.43,1.12-.18.82-1.01ZM96.06,89.49c.21-1.71-.24-2.61-2.07-2.36.18,1.09.16,1.34,1.18.88-.04.65-.05,1.56.89,1.48ZM92.81,89.19c.43-2.55-2.66-2.56-2.36,0h2.36ZM108.47,89.79l-10.77-.85c-1.36,1.45-.46,1.63.27,2.64.22.31.41,1.07.49,1.12.36.22,1.78-.1,3.01.69.92.59,1.55,2.15,1.73,2.25.53.31,2.73-.17,3.6.38.64-2.03.71-4.21,1.66-6.22ZM85.98,89.23c-.57-.52-9.97.52-11.49.56.24.87.77,1.41,1.04,2.35.3,1.04.39,2.46.43,3.56,1.07-.15,2.67.24,3.64-.06.72-.22,1.46-2.35,3.37-2.83.57-.14,1.44.08,1.8-.13s1.94-2.79,1.2-3.45ZM74.46,95.96c.25-.29-.25-2.71-.41-3.23-.77-2.56-2-3.11-4.58-2.36.37,1.07,1.25,1.82,1.62,2.96.32.99.46,2.2.45,3.25.46-.19,2.82-.49,2.92-.62ZM113.49,90.38c-3.34-1.77-5.24,2.51-4.73,5.17.2,1.04,2.47.89,2.64.72.11-.11.36-2.46.59-3.1.39-1.08,1.23-1.72,1.49-2.79ZM94.88,90.67h-6.5c.13.65.4,1.72,1.02,1.79,1.59.19,5.93.57,5.48-1.79ZM87.49,91.85c-1.26-.16-1.32,1.93-1.76,2.24-.55.39-2.74-1.08-4.02,1.58-2.58,5.41,5.35,9.67,5.76,14.47-.75.52-2.24-.49-1.75.76.28.71,1.55.58,1.92-.16.43-.86-.4-1.41,1.33-1.17l-.15,2.06c2.06-1.5,3.59-1.42,5.62,0-.14-.53-.37-2.3.58-2.06.42.11.67,2.39,2.22,1.77.43-1.85-.89-.83-1.35-1.45-.97-1.3,3.76-6.05,4.55-7.31,1.4-2.24,2.94-7.08-.37-8.39-1.06-.42-2.19.15-2.54-.1-.48-.33-.85-3.75-1.84-1.56-.52,1.14,1.41,2.73,1.27,4.05,1.7-1.94,4.45-1.49,4.43,1.33,0,1.15-1.76,5.28-2.86,5.71-.38.15-.84.17-.69-.39.14-.5,2.08-3.72,1.77-3.99-2.15-.21-1.2.16-1.55,1.55-.26,1.08-2.3,6.99-3.04,7.3-.13.05-.73.12-.73-.14-.03-.38,0-.74.07-1.11.51-2.31,2.51-5.49,3.05-7.9.06-.28-.06-1.08-.17-1.18-.52-.49-.76.94-1.38,1.12-2.89.88-2.36-1.92-2.78-2.28-.24-.2-2.21.09-2.76-.05.1,1.77-2.05,3.36-3.35,2.02-.39-.4-.08-1.37-.66-1.41-.6,3.65,2.49,7.13,2.66,10.78,0,.25-.63.2-.74.15-.44-.2-3.14-7.69-3.12-8.85h-1.16c-.44.41,1.58,3.35,1.76,3.98.14.47-.04.46-.44.44-2.81-.13-5.06-10.2-.22-8.06.79.35.67,1,1.25,1.25-.04-2,2.01-3.07,1.18-5.02ZM92.52,93.62h-1.78c-.19,1.58.21,1.96,1.77,1.78v-1.78ZM89.26,93.92c-1.24-.2-1.73,3.29-1.47,3.55.08.07.71.11.89-.2.4-.71.62-2.5.59-3.34ZM94.84,94.26c-.32-.22-.88-.24-.85.4.03.5.63,3.09,1.04,3.1.84,0,.33-3.13-.19-3.49ZM84.86,97.33c0-.42-.34-.76-.76-.76s-.76.34-.76.76.34.76.76.76.76-.34.76-.76ZM99.9,98.06c.68-.67-1.22-1.87-1.47-.73-.16.72,1.28.92,1.47.73ZM74.19,143.56h34.57c-2.42-3.58-1.84-8.64-1.79-12.87,0-.7.31-1.35.32-2.04.1-10.38-.07-20.78-.04-31.15-.23-.27-3.68-.46-3.81-.33-.12.12.22,2.14-.29,2.66,1.05-.5,1.64.73,1.18,1.18-.08.08-1.8-.18-2.06.75l1.18.44c.46,2.08-1.59.94-2.66,1.92l1.48.44c.52,2.35-2.2.23-3.25,1.92l2.07.44c.05.07-.26,1.14-.31,1.18-.2.15-2.9-1.17-3.23.45-.19.9,1.56.22,1.77.44.29.31.03,1.63-.89,1.18.3.6.39,1.06.1,1.71-.21.45-.66.33-.68.36-.41.61.53.56.59.77.43,1.44-1.17,1.45-2.07.7v.88c-1.15.59-1.9-1.53-2.52-1.47-.24.03-.34.72-.5.81-1.94,1.11-.71-1.9-.83-2h-1.48c.54.95.34,3.04-.84,2.02-.16-.14-.12-1.98-1.37-.53-.54.63-.07,1.3-1.2,1.19-.57-.05-.4-.57-.63-.62-1.11-.23-2.36,1.17-2.16-1.17l.88-.15c-.98-.82-1.62-1.5-.88-2.81-.12-.1-1.21.25-.89-.44.38-.81,2.64.02,1.64-1.35-.46-.64-3.22-.07-3.42-.28-.94-.97,1.83-1.3,2.36-1.33.08-1-5.47-.55-3.55-1.78.55-.36,1.61.26,1.48-.58-.37-1.16-2.78-.57-2.95-.74-.67-.66,1.01-1.58,1.77-1.18-.64-1.49-2.78-.19-2.37-2.36h1.19c-.13-.44-.21-2.56-.3-2.66-.13-.14-3.45-.1-3.71.27-.35.51-.08,9.02-.12,10.52-1.41,10.23.83,22.11-.31,32.2-.14,1.28-.76,2.38-1.48,3.4ZM74.19,97.76c-.33-.05-2.66.16-2.66.3v45.8c.73-.36,2.66-2.75,2.66-3.4v-42.7ZM111.43,97.76h-2.66v42.7c0,.43,1.96,3.17,2.66,3.4v-46.1ZM123.25,127.01c-.14-.13-1.88.41-2.08-1.05-.17-1.26,1.19-2.34,1.12-3.18-.09-1.07-1.64-2.01-1.72-2.72-.09-.83.77-1.39.91-2.34.55-3.81-1.09-3.18-2-.23-.25.82-1.06,5.17-.83,5.67.41.89,2.18,1.88,1.63,3.56-.42-.1-2.96.12-2.96.45,1.04,1.37.19,4.06.74,5.17.21.41.99.58,1.31,1.06.24.37.24,1.13.38,1.25.37.32,1.79,0,3.05,1.52,1.55,1.86,1.89,4.22,1.54,6.58-.39,2.63-2.53,4.18-2.29,7.17.18,2.2,1.48,1.11,3.25,1.33-1.63-3.3-.9-6.06,1.85-8.35.13-.11,1.99-1,.95-1.11-3.11-.32-.98-1.58-.78-3.48.08-.73-.28-1.27-.24-1.96.1-1.4,1.61-3.67-.3-4.91.83,5.16-2.44,4.13-3.19.38-.16-.79-.19-4.64-.36-4.81ZM57.65,115.79c-2.19-.36-2.5.48-3.18,2.29-1.11,2.93-.88,5.32-.66,8.35l2.36.29c.04-.71.03-1.39-.13-2.08-.18-.79-2.1-3.77-.9-4.12s1.88,2.68,2.25,2.91c.34.21,1.31.04,1.42-.43.25-1.06-2-5.6-1.16-7.21ZM70.06,116.08c-.93.05-1.31,1.45-1.82,2.18-.22.33-.83.45-.85.65-.05.48,1.19,5.21,1.49,5.44.05.04,1.17-.23,1.17-.29v-7.98ZM70.06,131.59c.32-1.45-.23-3.89,0-5.47l-1.49,2.79c-.41,1.43-.58,4.9-2.05,5.64-1.75.88-.17-2.13-.09-2.45.27-1.06.29-2.22.59-3.25.34-1.2,2.17-3.42.4-4.04-.46-.16-1.74.56-2.04-.67-.22-.88.98-1.61,1.09-2.36.09-.59-.36-1.24-.24-1.99.07-.45,1.48-2.31-.39-1.59-.17.06-2.42,2.37-2.49,2.53-.67,1.44.11,3.42-.2,3.92-.25.4-1.3.52-1.79.88-1.92,1.41-2.53,3.67-5.76,2.96-.22,4.08,3.36-.1,5.03.73s-.36,3.81-.25,4.39c.06.32,1.8,1.59,1.14,2.26-.72.72-2.41-1.74-2.95-1.18-.21,2.15.71,4.26.9,6.37.07.85-.46,2.04,0,3.09l.97-3.6c.42-.61,1-2.32,1.83-2.32,1.56,0-.2,2.43-.48,3.37-.64,2.12-.52,4.2-.86,6.23-.08.5-1.08,3.23-.87,3.41h2.95c-.01-.75-.59-1.04-.57-1.88.02-.71.46-1.66.53-2.44.13-1.41-.13-3.29.41-4.61.48-1.18,2.59-2.08,3.42-3.38.98-1.52.87-3.32,1.6-4.9.35-.75,1.59-1.97,1.69-2.44ZM125.69,128.86c.51-.52,2.46-.81,2.82-2.06s.13-4.02-.68-5.11c-.8-.11-.33.5-.3.89.1.97.42,2.68,0,3.54-.56,1.17-2.7.78-2.81.88-.33.31.59,4.22.3,5.02,1.32-.64-.3-2.19.67-3.18ZM112.9,124.65v7.24c0,.19,2.68,2.12,3.04,2.28.19.08,2.44.91,2.28.09-.79-.46-1.63-1.03-1.89-1.99-.2-.75.17-1.22.12-1.84-.04-.5-.23-2.99-.35-3.1-.09-.09-.61.07-.77-.08-.29-.26-.8-3.04-2.44-2.61ZM59.42,124.95h-1.77s0,1.77,0,1.77c.3.35,2.12-1.46,1.77-1.77ZM53.81,137.06v4.28c0,.23,2.85,2.03,3.55,2.96.79,1.07,1.01,2.56,2.07,3.4-.07-1.66-1.62-2.99-1.76-4.62-.06-.69.27-1.3.23-1.74-.16-1.59-1.41-6.61-.56-7.71.55-.71,2.58-.51,2.39-2.78-.68.04-1.05.56-1.75.76-.5.14-1.8.04-1.8.13v7.68c-.38-.02-.87.1-1.2-.13-.62-.42-.12-6.21-.27-7.41-.16-1.3-1.21-2.5-.3-3.98h-.89c.4,2.28-1.2,3.46-1.69,5.55-.19.8-.48,4.57-.7,4.76-.24.2-1.83-.08-2.33.04l2.39,2.19,1.16.47c.17-1.4-.71-4.31,1.48-3.84ZM112.9,134.11v11.23c.7.14.47-.09.66-.38.37-.58,1.42-2.43,1.42-3.02,0-1.14-1.32-2.4-1.4-3.58-.13-1.84,2.16-3.71-.69-4.25ZM70.06,144.89c.49-2.93-.36-7.12,0-10.19-.5.08-.53.58-.67.95-1.47,3.86.04,6.66-.21,10.57.4-.08.83-1.03.88-1.33ZM120.58,151.24c.17-.16-.32-1.65-.28-2.18.23-3.45,4.75-6.73,1.9-11.1-1.11-1.71-4.58-2.53-6.44-2.09-.55.13-.53,2-.47,2.49.18,1.45,1.57,2.43,1.48,3.87s-2.45,2.49-2.09,5c.08.54.48.97.56,1.51s-.07,2.41.01,2.5c.11.11,2.19-.08,2.66,0-.1-1.61-.5-3.21-.27-4.85.16-1.12,1.21-2.41,1.15-3.25-.06-1-3.27-5.82-2.66-6.37.44.08,1.19-.24,1.51.18.21.28,2.5,5.04,2.56,5.35.41,2.01-1.28,3.98-1.13,6.44.04.6.57,3.4,1.49,2.5ZM133.29,137.06c-2.18-.23-4.66.87-5.02,3.25,1.48.28,1.94-.54,2.69-1.59l2.33-1.65ZM67.4,151.24c0-1.19-.38-2.16-.3-3.39s.9-2.4.91-3.55-.67-2.48-.62-3.7c-.76.66-2.22,1.35-2.53,2.35-.22.72-.82,6.33-.66,6.9.46,1.57,1.78,1.53,3.19,1.39ZM58.54,151.24c-.1-3.33-3.89-9.98-7.9-8.34-2.32.95-1.83,4.62-.53,3.02.42-.51.35-2.33,1.64-1.63.18.1,2.36,3.01,2.44,3.19.41.95-.23,1.5.19,2.14,1,1.55,2.41,1.85,4.17,1.62ZM133.57,146.8c1.57-6.01-7.68-3.62-7.67,1.04,0,.42,1.03,3.23,1.19,3.4,1.06,1.04.31-2.61.31-2.78.06-1.54.99-1.48,1.36-2.03.54-.79,1.6-3.68,2.69-1.47.61,1.23-.03,1.86,2.12,1.84ZM112.02,146.81c-.56-.88-1.4-1.74-2.51-1.78-11.4.81-24.25-1.05-35.48,0-1.25.12-2.37.72-3.09,1.79h41.07ZM52.92,148.59l-2.95-.3c-.12.11.49,3.11.62,3.22.11.09,1.61.09,1.72,0,.11-.1.55-2.48.62-2.92ZM113.8,148.28h-44.93v10.95h44.93v-10.95ZM132.11,148.59h-2.95c-.16.16.24,2.6.57,2.82.26.18,1.6.24,1.76.1.11-.1.55-2.48.62-2.92ZM48.48,149.47c-.6-.44-1.26,1.38-1.18,1.77h1.48c.12-.12-.22-1.71-.3-1.77ZM158.7,152.13h-2.07c.49,3.28,1.9,3.66,2.07,0ZM6.82,152.72h-1.77c-.03,3.06,1.65,3.12,1.77,0ZM49.08,153.02h-4.14c.03,2.66-.43,5.12,1.58,1.28l2.56-1.28ZM67.4,153.02h-15.96l2.36,3.4c.72.44,2.32-.29,2.83.74.39.78-.87,1.33-.76,2.07h11.52v-6.21ZM122.95,159.22c-2.6-4,1.12-1.94,2.78-2.99.73-.46,1.51-2.29,2.7-2.63.29-.16-.27-.59-.3-.59h-12.85v6.21h7.68ZM136.84,153.02h-4.43c-.02.93,1.05,1.15,1.62,1.78.33.37.45,1.18.87,1.49.38.27,1.79.43,1.95.27.13-.12-.09-2.99,0-3.55ZM21.01,153.61h-1.78c-.05,3.45,1.82,3.49,1.78,0ZM51.74,156.27c-.83-2.01-3.7-1.88-4.43,0h4.43ZM133,156.27c-.78-1.75-4.26-1.74-5.02,0h5.02ZM51.15,157.75h-7.98c-.05.66.74,1.36,1.34,1.47s5.73.09,5.99-.06c.09-.05.8-1.28.65-1.41ZM134.62,157.75c-2.16-.32-5,.24-7.24,0,.06.92.4,1.38,1.31,1.5,1.21.15,6.18.07,6.66-1.05-.07-.14-.68-.43-.74-.44ZM159.89,158.93c-.03-1.74-4.11-1.73-4.14,0h4.14ZM7.37,158.09c-.47-.29-3.71-.39-3.2,1.13h3.54c.1-.1-.24-1.07-.34-1.13ZM54.69,158.04c-1.28.01-2.34-.46-2.36,1.18.95.11,1.93-.29,2.36-1.18ZM126.15,158.09c-.25-.16-1.66-.12-2.02.1.57.7,1.47,1.05,2.36,1.03.1-.1-.24-1.07-.34-1.13ZM22.48,160.11c-.75-1.72-4.97-1.94-5.02.3l5.02-.3ZM45.24,160.39v16.86h4.73v-16.86h-4.73ZM51.44,160.4v16.84c0,.06,1.18.06,1.18,0v-16.1c0-.09.41-.42.29-.74h-1.48ZM127.09,160.4h-1.18v16.84h1.18v-16.84ZM133.59,160.4h-5.02v16.84h5.02v-16.84ZM161.66,160.41c-.59.1-3.71-.14-3.84,0-.04.04-.04,1.14,0,1.18.15.16,4.12.17,3.84-1.18ZM5.94,160.7l-3.55.14c.83,1.19,2.3.64,3.55.74v-.88ZM58.24,176.95v-14.63c0-.13-.87-.95-1.18-.74.12.42-.6.97-.6,1.03v14.33h1.77ZM61.19,176.95v-14.33c0-.21-.78-1.33-1.18-1.03-.82.61-.37,2.23-.41,2.86-.25,4.17-.2,8.33-.19,12.51h1.77ZM67.4,176.51v-11.52c0-.18-.39-2.67-.45-2.8-.26-.58-1.04-.89-1.28-.11-.12.4-.32,3.09-.35,3.78-.07,1.33-.17,10.37.14,10.81.35.49,1.77.39,1.94-.16ZM70.35,176.95v-11.97c-.64-.88.05-2.12-.57-2.97s-1.24-.17-1.43.67c-.38,1.67-.32,11.29-.08,13.25.17,1.4.88.99,2.08,1.02ZM77.45,162.33v14.63c1.16.02,1.63.24,1.79-1.02.3-2.49.14-7.44,0-10.07-.03-.63-.43-4.14-.61-4.27-.38-.14-1.12.53-1.18.74ZM82.17,176.95v-14.33c0-.87-1.46-1.62-1.77,0-.53,2.77-.66,10.49-.32,13.3.17,1.4.88.99,2.08,1.02ZM83.35,176.95c1.21-.03,1.91.38,2.08-1.02.34-2.81.21-10.54-.32-13.3-.31-1.63-1.77-.88-1.77,0v14.33ZM91.92,176.66v-11.67c-.64-.89.05-2.12-.58-2.97-.66-.9-1.49.13-1.49.61v14.04h2.07ZM96.81,161.6c-.41.13-.67,1.22-.72,1.65-.3,2.88-.39,9.89-.05,12.69.19,1.53,1.88,1.36,2.08.28-.15-3.44.2-6.93.01-10.35-.04-.69-.23-3.38-.35-3.78-.14-.44-.56-.62-.98-.48ZM101.08,176.51v-14.18c0-.34-1.13-1.21-1.62-.14-.19.42-.42,3.24-.46,3.97-.07,1.32-.08,10.41.32,10.79.19.18,1.62.04,1.76-.43ZM102.27,162.62v13.89c0,.6,2.07.6,2.07,0v-11.52c-.64-.89.05-2.12-.58-2.97s-1.34-.12-1.49.61ZM105.82,161.59c-.18.12-.57,3.66-.61,4.27-.15,2.62-.31,7.59,0,10.07.19,1.53,1.88,1.36,2.08.28v-13.27c.02-.65-.83-1.78-1.47-1.36ZM110.24,176.66v-14.04c0-1.2-1.77-1.11-1.77-.3v14.33h1.77ZM111.43,162.62v13.89c0,.6,2.07.6,2.07,0v-11.52c-.64-.89.05-2.12-.58-2.97s-1.34-.12-1.49.61ZM114.38,164.98v11.52c0,.43,1.54.73,1.94.16.31-.44.21-9.49.14-10.81-.04-.69-.23-3.38-.35-3.78-.09-.29-.36-.56-.69-.49-1.29.8-.34,2.25-1.04,3.4ZM117.63,162.33v14.33h1.77c-.11-3.49.14-7.01.01-10.5-.03-.85-.12-3.77-.46-4.27-.43-.63-1.24.12-1.32.44ZM120.59,162.62v14.04c0,.08,1.51.3,1.59.28.56-.16.46-.85.49-1.29.23-2.89.06-7.12-.01-10.06-.03-1.06-.56-2.3-.28-3.5-.66-.81-1.59-.37-1.79.54ZM37.55,162.92v14.04h1.77c-.14-3.48.18-7.02.01-10.5-.03-.63-.33-4.1-.45-4.28-.47-.74-1.24.28-1.34.75ZM41.99,176.95v-14.33c0-.62-.86-1.15-1.34-.45-.11.17-.42,3.4-.45,3.98-.18,3.57.17,7.23.01,10.8h1.77ZM43.76,176.95v-15.07c-.19-.02-.59.39-.59.44v14.63h.59ZM54.4,161.88v15.07h.89v-14.33c0-.32-.45-.99-.89-.74ZM62.38,176.95c.51-.05,1.38.15,1.79-.13.84-.58-.41-12.58-.07-14.45-.18-.57-.93-.73-1.29-.2.06.77-.44,2.28-.44,2.81v11.97ZM73.31,176.95v-11.97c0-.53-.5-2.05-.44-2.81-.41-.6-1.34-.15-1.34.16v14.63h1.77ZM76.26,176.95v-11.97c0-.5-.56-1.83-.34-2.61-.29-.96-1.63-.49-1.44.53v14.05s1.78,0,1.78,0ZM86.61,162.33v14.63h2.07c-.13-1.76.25-14.55-.33-15.04-.26-.22-1.6-.04-1.74.41ZM93.11,162.33v14.33h1.77v-14.04c0-.99-1.57-.97-1.77-.3ZM136.25,177.25v-12.26c0-.49-.56-1.83-.34-2.61-.16-.4-.41-.57-.84-.49v15.37c0,.06.97-.04,1.18,0ZM138.91,177.25v-14.63c0-.25-1.23-1.41-1.48,0-.51,2.99-.68,10.61-.31,13.61.15,1.26.63,1.04,1.79,1.02ZM140.09,162.92v14.33h1.77c-.14-5.12.41-10.32-.6-15.36-.39-.29-1.12.74-1.18,1.03ZM33.12,162.18c-.93-.67-1.15,3.33-1.19,3.98-.19,3.38.17,6.95.01,10.35-.15.85,1.72.98,1.78.57-.1-1.9.29-14.26-.6-14.9ZM34.9,162.92v14.33c.26-.14,1.48-.22,1.48-.3v-14.04c0-.88-1.29-1.18-1.48,0ZM124.43,176.66v-14.48c-.19-.02-.59.39-.59.44v14.04h.59ZM143.04,162.92v14.33h1.48v-14.33c0-1.11-1.28-.7-1.48,0ZM147.18,177.25v-14.33c0-.09-.6-.54-.74-.73-.79.63-.74,1.82-.74,2.8v12.26h1.48ZM28.1,177.25c.43-.42-.33-10.48,0-11.97-.45-.75.24-1.35-.15-2.21-.29-.64-1.04-.6-1.04-.15v14.33c0,.06,1.14.04,1.18,0ZM30.76,177.25v-14.33c0-.31-.84-.56-1.18-.44-.34.72.03,1.5-.03,2.19-.02.29-.27.53-.27.62v11.97h1.48ZM148.36,165.28c-.34,3.92.25,8.29,0,12.26,1.16.02,1.63.24,1.79-1.02.52-4.28-.31-9.69-.31-14.05-.41-.01-.77-.11-1.04.29-.07.11-.41,2.18-.44,2.52ZM152.5,177.54v-14.63c0-.49-1.18-.7-1.18.3v14.33c0,.06.97-.04,1.18,0ZM24.55,164.1c-.47,4.18.35,9.18,0,13.44.21-.04,1.18.06,1.18,0v-11.97c0-.55-.62-1.93-.3-2.81-.63-.3-.86,1.07-.88,1.33ZM156.04,162.77h-.59v15.07h.59v-15.07ZM160.18,177.84v-14.63c0-.62-2.17-.44-2.66-.44v15.07h2.66ZM4.46,163.06v14.77h2.36v-14.77h-2.36ZM16.87,177.54v-11.38l-.74-3.1-.73,2.8v11.67h1.48ZM18.05,163.51v14.04c0,.06,1.18.06,1.18,0v-13.74c0-.78-.97-1.02-1.18-.3ZM21.6,177.54v-14.04c0-.18-.61-.57-.88-.44,0,1.78-.82,13.98-.3,14.48.08.07.89-.05,1.18,0ZM13.03,163.8v13.74c0,.06,1.18.06,1.18,0v-13.44c0-.78-.97-1.02-1.18-.3ZM10.67,163.66v13.89c0,.06,1.18.06,1.18,0v-11.38c0-.47-.61-1.71-.3-2.51h-.89ZM153.98,165.72h-.3v11.52h.3v-11.52ZM23.37,166.02h-.3v9.75h.3v-9.75ZM50.26,178.73h-5.91v5.91h5.91v-5.91ZM53.81,178.73h-1.77v5.91h1.77v-5.91ZM125.02,178.73v5.91h1.48c-.06-1.99.5-3.92.3-5.91h-1.77ZM134.47,178.73h-6.21c.16.38-.3.88-.3,1.03v4.88h6.5v-5.91ZM120.88,179.32c-.12.18,0,3.61,0,4.28,0,.55,1.41.69,1.71-.36.17-.59.17-3.09-.09-3.63-.31-.65-1.44-.57-1.62-.3ZM40.51,179.32v4.28c0,.3.93.61,1.18.44.32-.21,1.03-5.75-1.18-4.73ZM58.24,179.32c-2.2-.56-2,1.77-1.75,3.38.26,1.71,1.75,1.53,1.75.91v-4.28ZM59.72,179.32v4.28c0,.37,1.32,1.19,1.49-.87.11-1.38.45-3.89-1.49-3.41ZM62.67,179.32v4.28c0,.63,1.49.8,1.75-.91.25-1.61.44-3.93-1.75-3.38ZM67.4,179.31h-1.78c.09.78-.29,4.54.49,4.74,2.02.53,1.09-3.47,1.29-4.74ZM69.05,179.34c-.79.26-.97,5.24.85,4.7.55-.16,1.24-5.39-.85-4.7ZM71.83,179.32v4.28c0,.3.93.61,1.18.44.46-.3.26-3.95.3-4.73h-1.48ZM76.26,179.32h-1.48v4.28c0,.56,1.48.56,1.48,0v-4.28ZM77.74,179.32v4.73c2.39.05,1.22-3.16,1.48-4.73h-1.48ZM82.17,179.32c-2.17-.48-1.95,1.49-1.79,3.12.21,2.12,1.79,1.74,1.79,1.16v-4.28ZM83.65,183.75c1.41.52,1.65.03,1.79-1.31.17-1.63.38-3.6-1.79-3.12v4.43ZM86.93,184.02c1.99,1.34,2.32-4.32,1.27-4.67-2.59-.86-1.51,4.5-1.27,4.67ZM91.63,179.32c-2.17-.48-1.95,1.49-1.79,3.12.21,2.12,1.79,1.74,1.79,1.16v-4.28ZM93.11,179.31c.1.86-.5,4.96,1,4.71,1.1-.18,1.61-5.83-1-4.71ZM97.83,179.32c-2.47-1.1-1.88,3.61-1.34,4.44.39.6,1.34.15,1.34-.15v-4.28ZM100.79,184.04c.35-.23.53-4.24.03-4.6-2.32-1.65-1.91,5.86-.03,4.6ZM103.74,184.04c.32-.24,1.07-5.78-1.18-4.73-.13.55-.19,5.74,1.18,4.73ZM105.52,179.32v4.28c0,.58,1.58.96,1.79-1.16.17-1.63.38-3.6-1.79-3.12ZM110.24,179.31c-2.21-.79-2.1,2.61-1.71,3.93.31,1.04,1.46,1.32,1.68-.26.16-1.17-.05-2.48.03-3.67ZM113.2,179.32h-1.48v4.43c0,.08,1.48.47,1.48-.15v-4.28ZM116.45,179.31h-1.78c0,.95-.4,6.21,1.33,4.44.81-.83.3-3.29.44-4.44ZM119.4,179.32c-2.2-.56-2,1.77-1.75,3.38.26,1.71,1.75,1.53,1.75.91v-4.28ZM156.04,179.32h-.89v5.32h.89v-5.32ZM160.77,179.32h-3.55v5.17c0,.7,2.92.38,3.55.44v-5.61ZM7.12,179.61h-3.55v5.02h3.55v-5.02ZM30.76,179.61c-.29.05-1.1-.07-1.18,0-.17.16,0,4.52.3,4.73.24.17.88-.28.88-.44v-4.28ZM32.22,179.61v4.44h1.2v-4.44h-1.2ZM36.37,179.61h-1.48c.05.8-.17,4.38.3,4.73,1.13.82.98-4.13,1.18-4.73ZM39.03,179.61h-1.48c.1,1.09-.4,4.19.74,4.73.53.25.66-.75.71-1.06.16-1.17-.05-2.48.03-3.67ZM138.91,179.61h-1.48c-.18.61-.12,6.09,1.2,4.26.58-.8.14-3.21.28-4.26ZM141.57,179.61h-1.18v4.43h1.18v-4.43ZM144.52,179.61h-1.48c-.17.17.08,4.55.3,4.73.03.03.84.03.88,0,.23-.18.47-4.56.3-4.73ZM147.18,179.61c-2.28-1.09-1.43,4.51-1.18,4.73.21.18,1.18-.14,1.18-.44v-4.28ZM149.84,179.61c-.21.04-1.18-.06-1.18,0v4.28c0,.51,1.18.51,1.18,0v-4.28ZM152.5,179.61c-1.91-.77-1.14,4.54-.88,4.73.24.17.88-.28.88-.44v-4.28ZM18.35,184.34c1.14.86,1.23-4.26.44-4.43-1.22-.26-.74,4.2-.44,4.43ZM21.6,179.91c-.25-.12-.89.25-.89.44v4.28c.25.12.89-.25.89-.44v-4.28ZM25.75,179.91h-1.2v4.44h1.2v-4.44ZM28.1,179.91s-1.14-.04-1.18,0c-.16.15,0,4.21.3,4.43,1.13.85,1.06-4.27.88-4.43ZM11.85,180.2s-1.14-.04-1.18,0c-.16.16-.17,4.13.45,4.43.58.16.66-.7.71-1.06.06-.47.15-3.26.03-3.37ZM14.21,180.2s-1.14-.04-1.18,0c-.15.14,0,3.93.3,4.14,1.12.81,1.05-3.98.88-4.14ZM16.57,180.2h-.89c.26,1.2-.74,3.96.89,4.14v-4.14ZM5.05,186.11c-.49,0-2.66-.17-2.66.44v11.52c0,.63,2.66.63,2.66,0v-11.97ZM42.28,186.1H6.53v12.13h35.75v-12.13ZM50.85,198.23v-11.67s-.41-.44-.44-.44h-6.21s-.44.41-.44.44v11.67h7.09ZM56.76,186.11h-4.43v8.86c2.25.66.64-2.31,1.22-3.21.19-.3,1.64-.27,1.72-.35.18-.18-.15-2.15.05-2.75.25-.73,1.29-.36,1.43-.49.13-.12-.06-1.64.01-2.06ZM58.22,186.11v2.07h62.36v-2.07h-62.36ZM126.2,186.11h-4.14c.08.42-.12,1.93.01,2.06.14.13,1.18-.24,1.43.49.2.59-.12,2.58.05,2.75.1.1,1.53-.14,1.69.79.19,1.04-1.29,3.27.95,2.77v-8.86ZM135.06,186.11h-7.39v12.11h7.39v-12.11ZM156.65,186.11h-20.11v12.11h20.11v-12.11ZM161.95,186.41l-3.84-.3v12.11h3.84v-11.82ZM122.06,189.66H56.76v1.77h65.3v-1.77ZM123.54,192.91H54.99v2.07h68.55v-2.07ZM126.2,196.45H52.33v1.77h73.87v-1.77Z" style="fill: #162554;"/>
  <g>
    <path d="M94.58,119.92c-.13-.54-1.02-.26-1.6-.62-.84-.52-1.01-2.48-.72-3.32.39-1.13,2.94-.83,1.71.53-.17.19-.75.27-.81.59-.1.6.92,1.99,1.41,1.13.27-.47-.15-1,1.04-1,1.29,0,1.15,1.21,1.82,1.46.37.13,1.21-.02,1.28.05.1.09.04,1.12-.28,1.35-.58.42-1.63-.33-1.79-.17-.28,1.01,1.7,1.32,1.78,1.67.21.88.1,7.08-.08,8.15-.25,1.51-1.55,3.15-2.74,4.05-4.58,3.46-10.35.12-10.99-5.25-.14-1.17-.32-6.45.29-7.08.34-.35,2.16-.74,1.99-1.4-.09-.35-3.03.59-2.36-.89.25-.56,1.38-.43,1.86-.72.42-.25.38-1.13,1.25-1.22,1.14-.12,1.07,1.36,1.76,1.2.51-.44.81-1.09.74-1.77h-1.19c-.41-1.35,1.06-2.05,1.93-1.19.51.5.62,3.13-.17,3.68-.65.45-1.72.17-2.05.75h5.91ZM96.35,119.92c.07-.36-.43-1.51-.59-1.18-.07.36.43,1.51.59,1.18ZM92.81,121.1h-2.36c.13,1.9.69,1.52,2.36,1.48v-1.48ZM96.35,122.28c.47-.66-1.58-1.44-2.07-1.18v1.48c.13.13,1.98-.18,2.07-.3ZM89.26,121.4c-2.7-.59-2.45,1.78-.47,1.2.25-.07.23-.9.47-1.2ZM87.19,126.43c.01-1.43.36-2.84-1.18-3.55.09.56-.13,3.42,0,3.55.08.07.89-.05,1.18,0ZM97.24,123.47c-1.84-.01-1.05,1.6-1.18,2.95,1.98.48.96-1.52,1.18-2.95ZM88.38,123.76v5.47c0,.14,1.69,2.32,2.07,1.92-.31-2.77,2.69-3.58,1.91-.3-.19.79,1.04.12,1.36-.12.35-.26,1.16-1.43,1.16-1.79v-5.17c-.43.07-2.27-.1-2.37,0-.18.19.49,1.97-.74,2.09-1.32.13-1.2-1.22-.74-2.08h-2.66ZM97.24,127.9c-1.85-.41-.92,1.02-1.48,2.36,1.58.72,1.53-1.36,1.48-2.36ZM87.19,128.2s-1.13-.04-1.17,0c-.33.32.14,2.86,1.47,2.07-.24-.4-.23-1.99-.3-2.06ZM95.76,131.45c-.74-.93-1.78.6-2.25.85-.84.44-2.53.49-3.44.26-.67-.17-1.45-1.23-1.84-1.31-.17-.03-.94.16-.74.64.45,1.1,3.13,1.98,4.28,1.95.81-.02,4.75-1.42,3.99-2.39Z" style="fill: #162554;"/>
    <rect x="90.45" y="137.35" width="2.07" height="1.19" style="fill: #162554;"/>
    <rect x="85.42" y="137.35" width="1.78" height="1.19" style="fill: #162554;"/>
    <rect x="97.54" y="115.19" width="1.19" height="1.78" style="fill: #162554;"/>
    <path d="M84.54,116.97c-.1-.1.06-1.27,0-1.62,2.19-.69.88,2.54,0,1.62Z" style="fill: #162554;"/>
    <rect x="82.76" y="137.36" width="1.48" height="1.19" style="fill: #162554;"/>
    <rect x="88.08" y="137.36" width="1.48" height="1.19" style="fill: #162554;"/>
    <rect x="93.4" y="137.36" width="1.48" height="1.19" style="fill: #162554;"/>
    <rect x="96.06" y="137.36" width="1.48" height="1.19" style="fill: #162554;"/>
    <rect x="98.72" y="137.36" width="1.48" height="1.19" style="fill: #162554;"/>
    <path d="M93.99,156.27h1.19c.01,2.76-1.94.93-3.41.87s-4.25,1.88-3.98-.87h1.48c-3.2-3.12,1.01-7.52,4.24-4.98,2.33,1.83.26,4.77.49,4.98ZM90.22,155.02c1.99,1.97,4.2-1.36,2.17-2.61-2.04-1.25-3.4,1.38-2.17,2.61Z" style="fill: #162554;"/>
    <path d="M86.01,80.62c-.15.14-3.99.44-4.14.29-.04-.04-.04-1.13,0-1.17.13-.13,3.22-.39,3.64-.26.49.15.68.95.49,1.13Z" style="fill: #162554;"/>
    <path d="M101.38,79.74c.07.07.03.68-.13.9-.38.52-2.39.19-2.53-.02-.95-1.44,2.4-1.16,2.66-.88Z" style="fill: #162554;"/>
    <rect x="78.88" y="80.07" width="2.21" height="1.29" transform="translate(-13.02 15.43) rotate(-10.19)" style="fill: #162554;"/>
    <path d="M104.04,81.21c-.53.06-2.25.15-2.07-.73.69-.86,2.36-.62,2.07.73Z" style="fill: #162554;"/>
    <path d="M92.52,126.42c-.08.49.23,1.51-.18,1.8-1.29.95-1.55-.56-1.75-.62-.75-.24-.31.76-.45.88-.94.81-1.92-1.08-1.47-2.06h3.84Z" style="fill: #162554;"/>
    <path d="M94.58,126.13c.03,1.56.42,2.42-1.49,2.24-.78-1.48-.29-2.57,1.49-2.24Z" style="fill: #162554;"/>
  </g>
</svg>