<?xml version="1.0" encoding="UTF-8"?>
<svg id="Layer_1" xmlns="http://www.w3.org/2000/svg" version="1.1" viewBox="0 0 60 54.64">
  <!-- Generator: Adobe Illustrator 30.0.0, SVG Export Plug-In . SVG Version: 2.1.1 Build 123)  -->
  <path d="M33.28.95s.5,1.59.5,1.59c.55.18,1.09.4,1.6.66l1.48-.77c.35-.19.78-.16,1.11.07,1.35.94,2.52,2.11,3.46,3.46.23.33.26.76.07,1.11l-.77,1.48c.26.52.48,1.05.66,1.6l1.59.5c.38.12.67.44.74.83.29,1.62.29,3.28,0,4.9-.07.39-.35.72-.74.83,0,0-1.59.5-1.59.5-.18.55-.4,1.09-.66,1.6l.77,1.48c.19.35.16.78-.07,1.11-.94,1.35-2.11,2.52-3.46,3.46-.33.23-.76.26-1.11.07l-1.48-.77c-.52.26-1.05.48-1.6.66l-.5,1.59c-.12.38-.44.67-.83.74-1.62.29-3.28.29-4.9,0-.39-.07-.72-.35-.83-.74,0,0-.5-1.59-.5-1.59-.55-.18-1.09-.4-1.6-.66l-1.48.77c-.35.19-.78.16-1.11-.07-1.35-.94-2.52-2.11-3.46-3.46-.23-.33-.26-.76-.07-1.11l.77-1.48c-.26-.52-.48-1.05-.66-1.6l-1.59-.5c-.38-.12-.67-.44-.74-.83-.29-1.62-.29-3.28,0-4.9.07-.39.35-.72.74-.83,0,0,1.59-.5,1.59-.5.18-.55.4-1.09.66-1.6l-.77-1.48c-.19-.35-.16-.78.07-1.11.94-1.35,2.11-2.52,3.46-3.46.33-.23.76-.26,1.11-.07l1.48.77c.52-.26,1.05-.48,1.6-.66l.5-1.59c.12-.38.44-.67.83-.74,1.62-.29,3.28-.29,4.9,0,.39.07.72.35.83.74ZM30,6.43c-4.14,0-7.5,3.36-7.5,7.5s3.36,7.5,7.5,7.5,7.5-3.36,7.5-7.5-3.36-7.5-7.5-7.5ZM7.5,39.64c4.14,0,7.5,3.36,7.5,7.5s-3.36,7.5-7.5,7.5S0,51.28,0,47.14s3.36-7.5,7.5-7.5ZM2.52,48.08l2.79,2.99c.21.22.49.34.78.34s.58-.12.78-.34l5.59-5.99c.4-.43.38-1.11-.05-1.51-.43-.41-1.11-.38-1.51.05l-4.81,5.15-2.01-2.15c-.4-.43-1.08-.46-1.51-.05-.43.4-.46,1.08-.05,1.51h0ZM30,39.64c4.14,0,7.5,3.36,7.5,7.5s-3.36,7.5-7.5,7.5-7.5-3.36-7.5-7.5,3.36-7.5,7.5-7.5ZM25.02,48.08l2.79,2.99c.21.22.49.34.78.34s.58-.12.78-.34l5.59-5.99c.4-.43.38-1.11-.05-1.51-.43-.41-1.11-.38-1.51.05l-4.81,5.15-2.01-2.15c-.4-.43-1.08-.46-1.51-.05-.43.4-.46,1.08-.05,1.51h0ZM52.5,39.64c4.14,0,7.5,3.36,7.5,7.5s-3.36,7.5-7.5,7.5-7.5-3.36-7.5-7.5,3.36-7.5,7.5-7.5ZM47.52,48.08l2.79,2.99c.21.22.49.34.78.34s.58-.12.78-.34l5.59-5.99c.4-.43.38-1.11-.05-1.51-.43-.41-1.11-.38-1.51.05l-4.81,5.15-2.01-2.15c-.4-.43-1.08-.46-1.51-.05-.43.4-.46,1.08-.05,1.51h0ZM31.07,28.89v4.32h19.29c1.78,0,3.21,1.44,3.21,3.21v2.21c-.35-.04-.71-.06-1.07-.06s-.72.02-1.07.06v-2.21c0-.59-.48-1.07-1.07-1.07h-19.29v3.28c-.35-.04-.71-.06-1.07-.06s-.72.02-1.07.06v-3.28H9.64c-.59,0-1.07.48-1.07,1.07v2.21c-.35-.04-.71-.06-1.07-.06s-.72.02-1.07.06v-2.21c0-1.77,1.44-3.21,3.21-3.21h19.29v-4.32c.72.05,1.43.05,2.14,0Z" style="fill: #162554; fill-rule: evenodd;"/>
</svg>