<?xml version="1.0" encoding="UTF-8"?>
<svg id="Layer_1" xmlns="http://www.w3.org/2000/svg" version="1.1" viewBox="0 0 60 52.58">
  <!-- Generator: Adobe Illustrator 30.0.0, SVG Export Plug-In . SVG Version: 2.1.1 Build 123)  -->
  <path d="M36.27,50.4h-12.55c-.33,0-.6-.27-.6-.6v-28.26c0-.21.11-.4.28-.51.18-.11.39-.12.58-.03l12.55,6.22c.2.1.33.31.33.54v22.04c0,.33-.27.6-.6.6ZM24.32,49.2h11.35v-21.07l-11.35-5.63v26.7Z" style="fill: #162554;"/>
  <path d="M12.76,31.85c-.33,0-.6-.27-.6-.6V9.76c0-.33.27-.6.6-.6h14.4c.33,0,.6.27.6.6v13.49c0,.33-.27.6-.6.6s-.6-.27-.6-.6v-12.89h-13.21v20.9c0,.33-.27.6-.6.6Z" style="fill: #162554;"/>
  <path d="M23.73,50.4h-4.64c-.33,0-.6-.27-.6-.6s.27-.6.6-.6h4.64c.33,0,.6.27.6.6s-.27.6-.6.6Z" style="fill: #162554;"/>
  <path d="M19.09,50.4H5.78c-.33,0-.6-.27-.6-.6v-18.55c0-.33.27-.6.6-.6h13.31c.33,0,.6.27.6.6v18.55c0,.33-.27.6-.6.6ZM6.38,49.2h12.12v-17.35H6.38v17.35Z" style="fill: #162554;"/>
  <path d="M47.17,50.4h-10.9c-.33,0-.6-.27-.6-.6s.27-.6.6-.6h10.3v-28.37h-11.61v5.98c0,.33-.27.6-.6.6s-.6-.27-.6-.6v-6.58c0-.33.27-.6.6-.6h12.81c.33,0,.6.27.6.6v29.57c0,.33-.27.6-.6.6Z" style="fill: #162554;"/>
  <path d="M54.22,50.4h-7.05c-.33,0-.6-.27-.6-.6s.27-.6.6-.6h6.45v-13.59h-6.45c-.33,0-.6-.27-.6-.6s.27-.6.6-.6h7.05c.33,0,.6.27.6.6v14.78c0,.33-.27.6-.6.6Z" style="fill: #162554;"/>
  <path d="M32.4,50.4h-4.8c-.33,0-.6-.27-.6-.6v-10.8c0-.33.27-.6.6-.6h4.8c.33,0,.6.27.6.6v10.8c0,.33-.27.6-.6.6ZM28.2,49.2h3.61v-9.61h-3.61s0,9.61,0,9.61Z" style="fill: #162554;"/>
  <path d="M23.73,10.36h-7.53c-.33,0-.6-.27-.6-.6v-2.62c0-.33.27-.6.6-.6h7.53c.33,0,.6.27.6.6v2.62c0,.33-.27.6-.6.6ZM16.8,9.16h6.33v-1.42h-6.33v1.42Z" style="fill: #162554;"/>
  <path d="M19.96,7.74c-.33,0-.6-.27-.6-.6V.6C19.37.27,19.63,0,19.96,0s.6.27.6.6v6.55c0,.33-.27.6-.6.6Z" style="fill: #162554;"/>
  <path d="M19.09,28.69h-3.38c-.33,0-.6-.27-.6-.6v-15.27c0-.33.27-.6.6-.6h3.38c.33,0,.6.27.6.6v15.27c0,.33-.27.6-.6.6ZM16.3,27.49h2.19v-14.08h-2.19v14.08Z" style="fill: #162554;"/>
  <path d="M16.74,37.04h-8.62c-.33,0-.6-.27-.6-.6v-2.19c0-.33.27-.6.6-.6h8.62c.33,0,.6.27.6.6v2.19c0,.33-.27.6-.6.6ZM8.72,35.85h7.42v-1h-7.42v1Z" style="fill: #162554;"/>
  <path d="M16.74,42.22h-8.62c-.33,0-.6-.27-.6-.6v-2.19c0-.33.27-.6.6-.6h8.62c.33,0,.6.27.6.6v2.19c0,.33-.27.6-.6.6ZM8.72,41.03h7.42v-1h-7.42v1Z" style="fill: #162554;"/>
  <path d="M16.74,47.4h-8.62c-.33,0-.6-.27-.6-.6v-2.19c0-.33.27-.6.6-.6h8.62c.33,0,.6.27.6.6v2.19c0,.33-.27.6-.6.6ZM8.72,46.2h7.42v-1h-7.42v1Z" style="fill: #162554;"/>
  <path d="M43.42,47.21c-.33,0-.6-.27-.6-.6v-23.18c0-.33.27-.6.6-.6s.6.27.6.6v23.18c0,.33-.27.6-.6.6Z" style="fill: #162554;"/>
  <path d="M39.71,47.21c-.33,0-.6-.27-.6-.6v-23.18c0-.33.27-.6.6-.6s.6.27.6.6v23.18c0,.33-.27.6-.6.6Z" style="fill: #162554;"/>
  <path d="M36.27,33.71c-.09,0-.18-.02-.26-.06l-12.55-6.22c-.3-.15-.42-.5-.27-.8.15-.3.5-.42.8-.27l12.55,6.22c.3.15.42.51.27.8-.1.21-.32.33-.54.33Z" style="fill: #162554;"/>
  <path d="M59.4,52.58H.6c-.33,0-.6-.27-.6-.6v-2.18c0-.33.27-.6.6-.6h58.81c.33,0,.6.27.6.6v2.18c0,.33-.27.6-.6.6ZM1.19,51.39h57.61v-.99H1.19v.99Z" style="fill: #162554;"/>
</svg>